<svg xmlns="http://www.w3.org/2000/svg" xmlns:xlink="http://www.w3.org/1999/xlink" version="1.1" style="background: #ffffff" viewBox="0 0 3320 2559"><style id="v-3" type="text/css">        .joint-element .scalable * {            vector-effect: non-scaling-stroke;        }    </style><defs joint-selector="defs"><marker id="v-21252848929" orient="auto" overflow="visible" markerUnits="userSpaceOnUse"><path id="v-127" stroke="#444444" fill="#444444" transform="rotate(180)" d="M 20 -10 0 0 20 10 Z"></path></marker></defs><g joint-selector="layers"  transform="matrix(1,0,0,1,0,0)"><g  style="pointer-events: none;"></g><g ></g><g  style="user-select: none;"><!--z-index:1--><!--z-index:2--><!--z-index:3--><!--z-index:4--><!--z-index:5--><!--z-index:6--><!--z-index:7--><!--z-index:8--><!--z-index:9--><!--z-index:10--><!--z-index:11--><!--z-index:12--><!--z-index:13--><!--z-index:14--><!--z-index:15--><!--z-index:16--><!--z-index:17--><!--z-index:18--><!--z-index:19--><g   id="j_2"  transform="translate(20,2515)"><g id="v-6"><text  id="v-7" font-size="24px" xml:space="preserve" y="0.8em" font-weight="normal" text-anchor="start" fill="#444444" pointer-events="none" display="block" font-family="Tahoma, Verdana, Helvetica, Arial"><tspan dy="0" >Monday, 22 June 2026 at 22:38 East Africa Time</tspan></text></g></g><!--z-index:20--><g   id="j_1"  transform="translate(20,2469)"><g id="v-4"><text  id="v-5" font-size="36px" xml:space="preserve" y="0.8em" font-weight="normal" text-anchor="start" fill="#444444" pointer-events="none" display="block" font-family="Tahoma, Verdana, Helvetica, Arial"><tspan dy="0" >Container View: Visitor Management System</tspan></text></g></g><!--z-index:21--><g   id="j_3"  transform="translate(250,160)" style=""><g  id="v-11" style="opacity: 1;"><rect  id="v-12" rx="1" ry="1" stroke-width="2" pointer-events="visiblePainted" fill="#999999" stroke="#8a8a8a" stroke-dasharray="" width="450" height="300" style="fill: rgb(153, 153, 153); stroke: rgb(138, 138, 138);"></rect><text  id="v-13" font-size="33.599999999999994px" xml:space="preserve" y="86.9" font-weight="bold" text-anchor="middle" pointer-events="visible" font-family="Tahoma, Verdana, Helvetica, Arial" fill="#ffffff" dominant-baseline="hanging" transform="matrix(1,0,0,1,225,0)" style="fill: rgb(255, 255, 255);"><tspan dy="0" >USSD Aggregator</tspan></text><text  id="v-14" font-size="16.799999999999997px" xml:space="preserve" y="128.5" text-anchor="middle" font-family="Tahoma, Verdana, Helvetica, Arial" fill="#ffffff" dominant-baseline="hanging" transform="matrix(1,0,0,1,225,0)" style="display: block; fill: rgb(255, 255, 255);"><tspan dy="0" >[Software System]</tspan></text><text  id="v-15" font-size="24px" xml:space="preserve" y="160.3" text-anchor="middle" font-family="Tahoma, Verdana, Helvetica, Arial" fill="#ffffff" dominant-baseline="hanging" transform="matrix(1,0,0,1,225,0)" style="display: block; fill: rgb(255, 255, 255);"><tspan dy="0" >Africa's Talking. Routes USSD</tspan><tspan dy="1.2em" x="0" >sessions via HTTP callbacks.</tspan></text><g  id="v-16" color="#ffffff" transform="matrix(1,0,0,1,222.5,268)" style="fill: rgb(255, 255, 255);" display="none"><g ></g><g ></g><g ></g><g ></g></g><image  id="v-17"></image></g></g><!--z-index:22--><g   id="j_4"  transform="translate(2620,2019)" style=""><g  id="v-21" style="opacity: 1;"><rect  id="v-22" rx="1" ry="1" stroke-width="2" pointer-events="visiblePainted" fill="#999999" stroke="#8a8a8a" stroke-dasharray="" width="450" height="300" style="fill: rgb(153, 153, 153); stroke: rgb(138, 138, 138);"></rect><text  id="v-23" font-size="33.599999999999994px" xml:space="preserve" y="72.5" font-weight="bold" text-anchor="middle" pointer-events="visible" font-family="Tahoma, Verdana, Helvetica, Arial" fill="#ffffff" dominant-baseline="hanging" transform="matrix(1,0,0,1,225,0)" style="fill: rgb(255, 255, 255);"><tspan dy="0" >Email Service</tspan></text><text  id="v-24" font-size="16.799999999999997px" xml:space="preserve" y="114.1" text-anchor="middle" font-family="Tahoma, Verdana, Helvetica, Arial" fill="#ffffff" dominant-baseline="hanging" transform="matrix(1,0,0,1,225,0)" style="display: block; fill: rgb(255, 255, 255);"><tspan dy="0" >[Software System]</tspan></text><text  id="v-25" font-size="24px" xml:space="preserve" y="145.89999999999998" text-anchor="middle" font-family="Tahoma, Verdana, Helvetica, Arial" fill="#ffffff" dominant-baseline="hanging" transform="matrix(1,0,0,1,225,0)" style="display: block; fill: rgb(255, 255, 255);"><tspan dy="0" >Transactional email — invites,</tspan><tspan dy="1.2em" x="0" >resets, export delivery. Provider</tspan><tspan dy="1.2em" x="0" >TBD.</tspan></text><g  id="v-26" color="#ffffff" transform="matrix(1,0,0,1,222.5,268)" style="fill: rgb(255, 255, 255);" display="none"><g ></g><g ></g><g ></g><g ></g></g><image  id="v-27"></image></g></g><!--z-index:23--><g   id="j_5"  transform="translate(2620,1669)" style=""><g  id="v-34" style="opacity: 1;"><rect  id="v-35" rx="1" ry="1" stroke-width="2" pointer-events="visiblePainted" fill="#999999" stroke="#8a8a8a" stroke-dasharray="" width="450" height="300" style="fill: rgb(153, 153, 153); stroke: rgb(138, 138, 138);"></rect><text  id="v-36" font-size="33.599999999999994px" xml:space="preserve" y="86.9" font-weight="bold" text-anchor="middle" pointer-events="visible" font-family="Tahoma, Verdana, Helvetica, Arial" fill="#ffffff" dominant-baseline="hanging" transform="matrix(1,0,0,1,225,0)" style="fill: rgb(255, 255, 255);"><tspan dy="0" >WhatsApp Business API</tspan></text><text  id="v-37" font-size="16.799999999999997px" xml:space="preserve" y="128.5" text-anchor="middle" font-family="Tahoma, Verdana, Helvetica, Arial" fill="#ffffff" dominant-baseline="hanging" transform="matrix(1,0,0,1,225,0)" style="display: block; fill: rgb(255, 255, 255);"><tspan dy="0" >[Software System]</tspan></text><text  id="v-38" font-size="24px" xml:space="preserve" y="160.3" text-anchor="middle" font-family="Tahoma, Verdana, Helvetica, Arial" fill="#ffffff" dominant-baseline="hanging" transform="matrix(1,0,0,1,225,0)" style="display: block; fill: rgb(255, 255, 255);"><tspan dy="0" >Optional tenant-funded notification</tspan><tspan dy="1.2em" x="0" >channel via Africa's Talking.</tspan></text><g  id="v-39" color="#ffffff" transform="matrix(1,0,0,1,222.5,268)" style="fill: rgb(255, 255, 255);" display="none"><g ></g><g ></g><g ></g><g ></g></g><image  id="v-40"></image></g></g><!--z-index:24--><g   id="j_6"  transform="translate(2620,1319)" style=""><g  id="v-47" style="opacity: 1;"><rect  id="v-48" rx="1" ry="1" stroke-width="2" pointer-events="visiblePainted" fill="#999999" stroke="#8a8a8a" stroke-dasharray="" width="450" height="300" style="fill: rgb(153, 153, 153); stroke: rgb(138, 138, 138);"></rect><text  id="v-49" font-size="33.599999999999994px" xml:space="preserve" y="86.9" font-weight="bold" text-anchor="middle" pointer-events="visible" font-family="Tahoma, Verdana, Helvetica, Arial" fill="#ffffff" dominant-baseline="hanging" transform="matrix(1,0,0,1,225,0)" style="fill: rgb(255, 255, 255);"><tspan dy="0" >Web Push Service</tspan></text><text  id="v-50" font-size="16.799999999999997px" xml:space="preserve" y="128.5" text-anchor="middle" font-family="Tahoma, Verdana, Helvetica, Arial" fill="#ffffff" dominant-baseline="hanging" transform="matrix(1,0,0,1,225,0)" style="display: block; fill: rgb(255, 255, 255);"><tspan dy="0" >[Software System]</tspan></text><text  id="v-51" font-size="24px" xml:space="preserve" y="160.3" text-anchor="middle" font-family="Tahoma, Verdana, Helvetica, Arial" fill="#ffffff" dominant-baseline="hanging" transform="matrix(1,0,0,1,225,0)" style="display: block; fill: rgb(255, 255, 255);"><tspan dy="0" >Browser push via VAPID —</tspan><tspan dy="1.2em" x="0" >Google/Apple browser vendors.</tspan></text><g  id="v-52" color="#ffffff" transform="matrix(1,0,0,1,222.5,268)" style="fill: rgb(255, 255, 255);" display="none"><g ></g><g ></g><g ></g><g ></g></g><image  id="v-53"></image></g></g><!--z-index:25--><g   id="j_8"  transform="translate(200,510)" style="; opacity: 1;"><g id="v-64"><rect  id="v-65" width="2920" height="815" rx="0" ry="0" stroke-width="2" pointer-events="none" stroke="#8a8a8a" fill="#ffffff" opacity="1" stroke-dasharray=""></rect><text  id="v-66" font-size="33.599999999999994px" xml:space="preserve" y="776" font-weight="bold" text-anchor="start" pointer-events="visible" font-family="Tahoma, Verdana, Helvetica, Arial" fill="#8a8a8a" transform="matrix(1,0,0,1,15,0)"><tspan dy="0" >Visitor Management System</tspan></text><text  id="v-67" font-size="16.799999999999997px" xml:space="preserve" y="800" font-weight="normal" text-anchor="start" pointer-events="visible" font-family="Tahoma, Verdana, Helvetica, Arial" fill="#8a8a8a" transform="matrix(1,0,0,1,15,0)"><tspan dy="0" >[Software System]</tspan></text><image  id="v-68" pointer-events="visible"></image></g></g><!--z-index:26--><g   id="j_7"  transform="translate(1040,677)" style=""><g  id="v-57" style="opacity: 1;"><rect  id="v-58" rx="20" ry="20" stroke-width="2" pointer-events="visiblePainted" fill="#1168bd" stroke="#0f5eaa" stroke-dasharray="" width="450" height="300" style="fill: rgb(17, 104, 189); stroke: rgb(15, 94, 170);"></rect><text  id="v-59" font-size="33.599999999999994px" xml:space="preserve" y="58.10000000000001" font-weight="bold" text-anchor="middle" pointer-events="visible" font-family="Tahoma, Verdana, Helvetica, Arial" fill="#ffffff" dominant-baseline="hanging" transform="matrix(1,0,0,1,225,0)" style="fill: rgb(255, 255, 255);"><tspan dy="0" >Web Application</tspan></text><text  id="v-60" font-size="16.799999999999997px" xml:space="preserve" y="99.7" text-anchor="middle" font-family="Tahoma, Verdana, Helvetica, Arial" fill="#ffffff" dominant-baseline="hanging" transform="matrix(1,0,0,1,225,0)" style="display: block; fill: rgb(255, 255, 255);"><tspan dy="0" >[Container: Laravel (PHP)]</tspan></text><text  id="v-61" font-size="24px" xml:space="preserve" y="131.5" text-anchor="middle" font-family="Tahoma, Verdana, Helvetica, Arial" fill="#ffffff" dominant-baseline="hanging" transform="matrix(1,0,0,1,225,0)" style="display: block; fill: rgb(255, 255, 255);"><tspan dy="0" >Handles USSD callbacks, serves the</tspan><tspan dy="1.2em" x="0" >dashboard, exposes internal APIs.</tspan><tspan dy="1.2em" x="0" >Dispatches notification jobs onto the</tspan><tspan dy="1.2em" x="0" >queue.</tspan></text><g  id="v-62" color="#ffffff" transform="matrix(1,0,0,1,222.5,268)" style="fill: rgb(255, 255, 255);" display="none"><g ></g><g ></g><g ></g><g ></g></g><image  id="v-63"></image></g></g><!--z-index:27--><g   id="j_9"  transform="translate(1830,768)" style=""><g  id="v-75" style="opacity: 1;"><polygon  id="v-76" stroke-width="2" pointer-events="visiblePainted" fill="#2e7d32" stroke="#29712d" stroke-dasharray="" points="112.5,0 337.5,0 450,194.5 337.5,389 112.5,389 0,194.5" style="fill: rgb(46, 125, 50); stroke: rgb(41, 113, 45);"></polygon><text  id="v-77" font-size="33.599999999999994px" xml:space="preserve" y="102.60000000000001" font-weight="bold" text-anchor="middle" pointer-events="visible" font-family="Tahoma, Verdana, Helvetica, Arial" fill="#ffffff" dominant-baseline="hanging" transform="matrix(1,0,0,1,225,0)" style="fill: rgb(255, 255, 255);"><tspan dy="0" >Queue Worker</tspan></text><text  id="v-78" font-size="16.799999999999997px" xml:space="preserve" y="144.2" text-anchor="middle" font-family="Tahoma, Verdana, Helvetica, Arial" fill="#ffffff" dominant-baseline="hanging" transform="matrix(1,0,0,1,225,0)" style="display: block; fill: rgb(255, 255, 255);"><tspan dy="0" >[Container: Laravel queue:work (PHP)]</tspan></text><text  id="v-79" font-size="24px" xml:space="preserve" y="176" text-anchor="middle" font-family="Tahoma, Verdana, Helvetica, Arial" fill="#ffffff" dominant-baseline="hanging" transform="matrix(1,0,0,1,225,0)" style="display: block; fill: rgb(255, 255, 255);"><tspan dy="0" >Processes async jobs — notification</tspan><tspan dy="1.2em" x="0" >dispatch (PWA push, WhatsApp),</tspan><tspan dy="1.2em" x="0" >export generation. Separate process</tspan><tspan dy="1.2em" x="0" >from the web app.</tspan></text><g  id="v-80" font-weight="normal" text-anchor="middle" color="#ffffff" transform="matrix(1,0,0,1,222.5,357)" style="fill: rgb(255, 255, 255);" display="none"><g ></g><g ></g><g ></g><g ></g></g><image  id="v-81"></image></g></g><!--z-index:28--><g   id="j_10"  transform="translate(2620,560)" style=""><g  id="v-88" style="opacity: 1;"><path  d="M 0,30 a 225,30 0,0,0 450 0 a 225,30 0,0,0 -450 0 l 0,240 a 225,30 0,0,0 450 0 l 0,-240" id="v-89" stroke-width="2" pointer-events="visiblePainted" fill="#555555" stroke="#4d4d4d" stroke-dasharray="" style="fill: rgb(85, 85, 85); stroke: rgb(77, 77, 77);"></path><rect  id="v-90" stroke-width="0" pointer-events="visiblePainted" fill="none" stroke="none" width="450" height="270" x="0" y="30"></rect><text  id="v-91" font-size="33.599999999999994px" xml:space="preserve" y="73.10000000000001" font-weight="bold" text-anchor="middle" pointer-events="visible" font-family="Tahoma, Verdana, Helvetica, Arial" fill="#ffffff" dominant-baseline="hanging" transform="matrix(1,0,0,1,225,0)" style="fill: rgb(255, 255, 255);"><tspan dy="0" >PostgreSQL Database</tspan></text><text  id="v-92" font-size="16.799999999999997px" xml:space="preserve" y="114.7" text-anchor="middle" font-family="Tahoma, Verdana, Helvetica, Arial" fill="#ffffff" dominant-baseline="hanging" transform="matrix(1,0,0,1,225,0)" style="display: block; fill: rgb(255, 255, 255);"><tspan dy="0" >[Container: PostgreSQL]</tspan></text><text  id="v-93" font-size="24px" xml:space="preserve" y="146.5" text-anchor="middle" font-family="Tahoma, Verdana, Helvetica, Arial" fill="#ffffff" dominant-baseline="hanging" transform="matrix(1,0,0,1,225,0)" style="display: block; fill: rgb(255, 255, 255);"><tspan dy="0" >Stores all system data —</tspan><tspan dy="1.2em" x="0" >organisations, buildings, tenants,</tspan><tspan dy="1.2em" x="0" >routing codes, visits, users.</tspan><tspan dy="1.2em" x="0" >Multi-tenant, tenant_id scoped.</tspan></text><g  id="v-94" font-weight="normal" text-anchor="middle" color="#ffffff" transform="matrix(1,0,0,1,222.5,268)" style="fill: rgb(255, 255, 255);" display="none"><g ></g><g ></g><g ></g><g ></g></g><image  id="v-95"></image></g></g><!--z-index:29--><g   id="j_11"  transform="translate(250,896)" style=""><g  id="v-102" style="opacity: 1;"><rect  id="v-103" rx="10" ry="10" stroke-width="2" pointer-events="visiblePainted" fill="#0c4091" stroke="#0c4091" stroke-dasharray="" width="450" height="302" style="fill: rgb(12, 64, 145); stroke: rgb(12, 64, 145);"></rect><rect  id="v-104" rx="10" ry="10" stroke-width="0" pointer-events="visiblePainted" fill="#0d47a1" stroke="#0c4091" width="446" height="260" x="2" y="40" style="fill: rgb(13, 71, 161);"></rect><ellipse  id="v-111" fill="#0d47a1" cx="20" cy="20" rx="10" ry="10" style="fill: rgb(13, 71, 161);"></ellipse><ellipse  id="v-112" fill="#0d47a1" cx="50" cy="20" rx="10" ry="10" style="fill: rgb(13, 71, 161);"></ellipse><ellipse  id="v-113" fill="#0d47a1" cx="80" cy="20" rx="10" ry="10" style="fill: rgb(13, 71, 161);"></ellipse><rect  id="v-105" rx="10" ry="10" stroke-width="0" pointer-events="visiblePainted" fill="#0d47a1" width="340" height="20" x="100" y="10" style="fill: rgb(13, 71, 161);"></rect><text  id="v-106" font-size="33.599999999999994px" xml:space="preserve" y="78.10000000000001" font-weight="bold" text-anchor="middle" pointer-events="visible" font-family="Tahoma, Verdana, Helvetica, Arial" fill="#ffffff" dominant-baseline="hanging" transform="matrix(1,0,0,1,225,0)" style="fill: rgb(255, 255, 255);"><tspan dy="0" >PWA Dashboard</tspan></text><text  id="v-107" font-size="16.799999999999997px" xml:space="preserve" y="119.7" text-anchor="middle" font-family="Tahoma, Verdana, Helvetica, Arial" fill="#ffffff" dominant-baseline="hanging" transform="matrix(1,0,0,1,225,0)" style="display: block; fill: rgb(255, 255, 255);"><tspan dy="0" >[Container: Browser (JS / Service Worker)]</tspan></text><text  id="v-108" font-size="24px" xml:space="preserve" y="151.5" text-anchor="middle" font-family="Tahoma, Verdana, Helvetica, Arial" fill="#ffffff" dominant-baseline="hanging" transform="matrix(1,0,0,1,225,0)" style="display: block; fill: rgb(255, 255, 255);"><tspan dy="0" >Served to guards, tenant admins,</tspan><tspan dy="1.2em" x="0" >building managers, org admins. SSE</tspan><tspan dy="1.2em" x="0" >for in-browser notifications. Service</tspan><tspan dy="1.2em" x="0" >worker for off-browser push.</tspan></text><g  id="v-109" font-weight="normal" text-anchor="middle" color="#ffffff" transform="matrix(1,0,0,1,222.5,268)" style="fill: rgb(255, 255, 255);" display="none"><g ></g><g ></g><g ></g><g ></g></g><image  id="v-110"></image></g></g><!--z-index:30--><g   id="j_12"  style="opacity: 1;"><path fill="none" cursor="pointer" stroke="transparent" stroke-linecap="round" joint-selector="wrapper" id="v-125" stroke-width="10" stroke-linejoin="round" d="M 646.54 460 L 862 649 C 867.3333333333333 653.2666666666667 873 656.6 879 659 L 1040 729.25"></path><path fill="none" pointer-events="none" joint-selector="line" id="v-124" stroke="#444444" stroke-width="2" stroke-linejoin="round" stroke-dasharray="8 8" d="M 646.54 460 L 862 649 C 867.3333333333333 653.2666666666667 873 656.6 879 659 L 1040 729.25" marker-end="url(#v-21252848929)"></path><g id="v-117" ><g id="v-118"  label-idx="0" cursor="move" transform="matrix(1,0,0,1,870.3496704101562,654.7584838867188)" style="cursor: default;"><rect joint-selector="rect" id="v-121" fill="#ffffff" rx="3" ry="3" x="-84.85772705078125" y="-46.46847915649414" width="171.77938842773438" height="88.20736694335938" pointer-events="none"  style="display: block;"></rect><text joint-selector="text" id="v-120" font-size="24px" xml:space="preserve" fill="#444444" text-anchor="middle" pointer-events="none" font-family="Tahoma, Verdana, Helvetica, Arial" font-weight="normal"  style="display: block;"><tspan dy="-0.8999999999999999em" >Forwards USSD</tspan><tspan dy="1.2em" x="0" >session — HTTP</tspan><tspan dy="1.2em" x="0" >callback</tspan></text></g><g id="v-119"  label-idx="1" cursor="move" transform="matrix(1,0,0,1,860.3496704101562,695.5584716796875)" style="cursor: default;"><rect joint-selector="rect" id="v-123" fill="#ffffff" rx="3" ry="3" x="0" y="1.1368683772161603e-13" width="0" height="0"  display="none"></rect><text joint-selector="text" id="v-122" fill="#000000" font-size="14" text-anchor="middle" text-vertical-anchor="middle" pointer-events="none"></text></g></g></g><!--z-index:31--><g   id="j_13"  style="opacity: 1;"><path fill="none" cursor="pointer" stroke="transparent" stroke-linecap="round" joint-selector="wrapper" id="v-139" stroke-width="10" stroke-linejoin="round" d="M 700 1046.91 L 860 1047 C 866.6666666666666 1046.9 873 1045.2333333333333 879 1042 L 1040 952.23"></path><path fill="none" pointer-events="none" joint-selector="line" id="v-138" stroke="#444444" stroke-width="2" stroke-linejoin="round" stroke-dasharray="8 8" d="M 700 1046.91 L 860 1047 C 866.6666666666666 1046.9 873 1045.2333333333333 879 1042 L 1040 952.23" marker-end="url(#v-21252848929)"></path><g id="v-131" ><g id="v-132"  label-idx="0" cursor="move" transform="matrix(1,0,0,1,869.712890625,1045.6846923828125)" style="cursor: default;"><rect joint-selector="rect" id="v-135" fill="#ffffff" rx="3" ry="3" x="-93.7201156616211" y="-32.068485260009766" width="187.34991455078125" height="59.40736770629883" pointer-events="none"  style="display: block;"></rect><text joint-selector="text" id="v-134" font-size="24px" xml:space="preserve" fill="#444444" text-anchor="middle" pointer-events="none" font-family="Tahoma, Verdana, Helvetica, Arial" font-weight="normal"  style="display: block;"><tspan dy="-0.3em" >API calls and SSE</tspan><tspan dy="1.2em" x="0" >stream — HTTPS</tspan></text></g><g id="v-133"  label-idx="1" cursor="move" transform="matrix(1,0,0,1,859.712890625,1072.084716796875)" style="cursor: default;"><rect joint-selector="rect" id="v-137" fill="#ffffff" rx="3" ry="3" x="0" y="-2.2737367544323206e-13" width="0" height="0"  display="none"></rect><text joint-selector="text" id="v-136" fill="#000000" font-size="14" text-anchor="middle" text-vertical-anchor="middle" pointer-events="none"></text></g></g></g><!--z-index:32--><g   id="j_14"  style="opacity: 1;"><path fill="none" cursor="pointer" stroke="transparent" stroke-linecap="round" joint-selector="wrapper" id="v-151" stroke-width="10" stroke-linejoin="round" d="M 1490 725.15 L 1651 652 C 1656.9999999999998 649.4666666666668 1663.333333333333 648.1333333333334 1670 648 L 2440 648 C 2446.6666666666665 648.1333333333334 2453.333333333333 648.8000000000002 2460 650 L 2620 674.8"></path><path fill="none" pointer-events="none" joint-selector="line" id="v-150" stroke="#444444" stroke-width="2" stroke-linejoin="round" stroke-dasharray="8 8" d="M 1490 725.15 L 1651 652 C 1656.9999999999998 649.4666666666668 1663.333333333333 648.1333333333334 1670 648 L 2440 648 C 2446.6666666666665 648.1333333333334 2453.333333333333 648.8000000000002 2460 650 L 2620 674.8" marker-end="url(#v-21252848929)"></path><g id="v-143" ><g id="v-144"  label-idx="0" cursor="move" transform="matrix(1,0,0,1,2055.113525390625,648)" style="cursor: default;"><rect joint-selector="rect" id="v-147" fill="#ffffff" rx="3" ry="3" x="-90.59661102294922" y="-32.068485260009766" width="181.9623565673828" height="59.40736770629883" pointer-events="none"  style="display: block;"></rect><text joint-selector="text" id="v-146" font-size="24px" xml:space="preserve" fill="#444444" text-anchor="middle" pointer-events="none" font-family="Tahoma, Verdana, Helvetica, Arial" font-weight="normal"  style="display: block;"><tspan dy="-0.3em" >Reads and writes</tspan><tspan dy="1.2em" x="0" >— SQL</tspan></text></g><g id="v-145"  label-idx="1" cursor="move" transform="matrix(1,0,0,1,2045.113525390625,674.4000244140625)" style="cursor: default;"><rect joint-selector="rect" id="v-149" fill="#ffffff" rx="3" ry="3" x="0" y="0" width="0" height="0"  display="none"></rect><text joint-selector="text" id="v-148" fill="#000000" font-size="14" text-anchor="middle" text-vertical-anchor="middle" pointer-events="none"></text></g></g></g><!--z-index:33--><g   id="j_15"  style="opacity: 1;"><path fill="none" cursor="pointer" stroke="transparent" stroke-linecap="round" joint-selector="wrapper" id="v-163" stroke-width="10" stroke-linejoin="round" d="M 1490 904.27 L 1651 959 C 1656.9999999999998 961.4333333333333 1663.333333333333 962.7666666666667 1670 963 L 1830 962.59"></path><path fill="none" pointer-events="none" joint-selector="line" id="v-162" stroke="#444444" stroke-width="2" stroke-linejoin="round" stroke-dasharray="8 8" d="M 1490 904.27 L 1651 959 C 1656.9999999999998 961.4333333333333 1663.333333333333 962.7666666666667 1670 963 L 1830 962.59" marker-end="url(#v-21252848929)"></path><g id="v-155" ><g id="v-156"  label-idx="0" cursor="move" transform="matrix(1,0,0,1,1660.17578125,961.809326171875)" style="cursor: default;"><rect joint-selector="rect" id="v-159" fill="#ffffff" rx="3" ry="3" x="-90.65638732910156" y="-46.46847915649414" width="183.61761474609375" height="88.20736694335938" pointer-events="none"  style="display: block;"></rect><text joint-selector="text" id="v-158" font-size="24px" xml:space="preserve" fill="#444444" text-anchor="middle" pointer-events="none" font-family="Tahoma, Verdana, Helvetica, Arial" font-weight="normal"  style="display: block;"><tspan dy="-0.8999999999999999em" >Dispatches async</tspan><tspan dy="1.2em" x="0" >jobs via Laravel</tspan><tspan dy="1.2em" x="0" >queue</tspan></text></g><g id="v-157"  label-idx="1" cursor="move" transform="matrix(1,0,0,1,1650.17578125,1002.6093139648438)" style="cursor: default;"><rect joint-selector="rect" id="v-161" fill="#ffffff" rx="3" ry="3" x="0" y="-2.2737367544323206e-13" width="0" height="0"  display="none"></rect><text joint-selector="text" id="v-160" fill="#000000" font-size="14" text-anchor="middle" text-vertical-anchor="middle" pointer-events="none"></text></g></g></g><!--z-index:34--><g   id="j_16"  style="opacity: 1;"><path fill="none" cursor="pointer" stroke="transparent" stroke-linecap="round" joint-selector="wrapper" id="v-175" stroke-width="10" stroke-linejoin="round" d="M 2280 866.55 L 2441 798 C 2447 795.3666666666668 2453.333333333333 793.3666666666668 2460 792 L 2620 757.88"></path><path fill="none" pointer-events="none" joint-selector="line" id="v-174" stroke="#444444" stroke-width="2" stroke-linejoin="round" stroke-dasharray="8 8" d="M 2280 866.55 L 2441 798 C 2447 795.3666666666668 2453.333333333333 793.3666666666668 2460 792 L 2620 757.88" marker-end="url(#v-21252848929)"></path><g id="v-167" ><g id="v-168"  label-idx="0" cursor="move" transform="matrix(1,0,0,1,2450.17578125,794.5484619140625)" style="cursor: default;"><rect joint-selector="rect" id="v-171" fill="#ffffff" rx="3" ry="3" x="-94.8559341430664" y="-32.068485260009766" width="191.23541259765625" height="59.40736770629883" pointer-events="none"  style="display: block;"></rect><text joint-selector="text" id="v-170" font-size="24px" xml:space="preserve" fill="#444444" text-anchor="middle" pointer-events="none" font-family="Tahoma, Verdana, Helvetica, Arial" font-weight="normal"  style="display: block;"><tspan dy="-0.3em" >Reads job context</tspan><tspan dy="1.2em" x="0" >— SQL</tspan></text></g><g id="v-169"  label-idx="1" cursor="move" transform="matrix(1,0,0,1,2440.17578125,820.948486328125)" style="cursor: default;"><rect joint-selector="rect" id="v-173" fill="#ffffff" rx="3" ry="3" x="4.547473508864641e-13" y="-1.1368683772161603e-13" width="0" height="0"  display="none"></rect><text joint-selector="text" id="v-172" fill="#000000" font-size="14" text-anchor="middle" text-vertical-anchor="middle" pointer-events="none"></text></g></g></g><!--z-index:35--><g   id="j_17"  style="opacity: 1;"><path fill="none" cursor="pointer" stroke="transparent" stroke-linecap="round" joint-selector="wrapper" id="v-187" stroke-width="10" stroke-linejoin="round" d="M 2280 925.1 L 2440 898 C 2446.6666666666665 897.2333333333333 2452 899.5666666666667 2456 905 L 2741.44 1319"></path><path fill="none" pointer-events="none" joint-selector="line" id="v-186" stroke="#444444" stroke-width="2" stroke-linejoin="round" stroke-dasharray="8 8" d="M 2280 925.1 L 2440 898 C 2446.6666666666665 897.2333333333333 2452 899.5666666666667 2456 905 L 2741.44 1319" marker-end="url(#v-21252848929)"></path><g id="v-179" ><g id="v-180"  label-idx="0" cursor="move" transform="matrix(1,0,0,1,2449.372802734375,899.3441772460938)" style="cursor: default;"><rect joint-selector="rect" id="v-183" fill="#ffffff" rx="3" ry="3" x="-97.80010223388672" y="-32.068485260009766" width="195.60020446777344" height="59.40736770629883" pointer-events="none"  style="display: block;"></rect><text joint-selector="text" id="v-182" font-size="24px" xml:space="preserve" fill="#444444" text-anchor="middle" pointer-events="none" font-family="Tahoma, Verdana, Helvetica, Arial" font-weight="normal"  style="display: block;"><tspan dy="-0.3em" >Sends VAPID push</tspan><tspan dy="1.2em" x="0" >payload</tspan></text></g><g id="v-181"  label-idx="1" cursor="move" transform="matrix(1,0,0,1,2439.372802734375,925.744140625)" style="cursor: default;"><rect joint-selector="rect" id="v-185" fill="#ffffff" rx="3" ry="3" x="-4.547473508864641e-13" y="-2.2737367544323206e-13" width="0" height="0"  display="none"></rect><text joint-selector="text" id="v-184" fill="#000000" font-size="14" text-anchor="middle" text-vertical-anchor="middle" pointer-events="none"></text></g></g></g><!--z-index:36--><g   id="j_18"  style="opacity: 1;"><path fill="none" cursor="pointer" stroke="transparent" stroke-linecap="round" joint-selector="wrapper" id="v-199" stroke-width="10" stroke-linejoin="round" d="M 2280 1000.07 L 2440 1027 C 2446.6666666666665 1027.9666666666667 2451.333333333333 1031.3000000000002 2454 1037 L 2770.05 1669"></path><path fill="none" pointer-events="none" joint-selector="line" id="v-198" stroke="#444444" stroke-width="2" stroke-linejoin="round" stroke-dasharray="8 8" d="M 2280 1000.07 L 2440 1027 C 2446.6666666666665 1027.9666666666667 2451.333333333333 1031.3000000000002 2454 1037 L 2770.05 1669" marker-end="url(#v-21252848929)"></path><g id="v-191" ><g id="v-192"  label-idx="0" cursor="move" transform="matrix(1,0,0,1,2448.98486328125,1030.5853271484375)" style="cursor: default;"><rect joint-selector="rect" id="v-195" fill="#ffffff" rx="3" ry="3" x="-81.30081939697266" y="-60.86848449707031" width="161.0543670654297" height="117.00736999511719" pointer-events="none"  style="display: block;"></rect><text joint-selector="text" id="v-194" font-size="24px" xml:space="preserve" fill="#444444" text-anchor="middle" pointer-events="none" font-family="Tahoma, Verdana, Helvetica, Arial" font-weight="normal"  style="display: block;"><tspan dy="-1.4999999999999998em" >Sends visit</tspan><tspan dy="1.2em" x="0" >notification</tspan><tspan dy="1.2em" x="0" >(optional,</tspan><tspan dy="1.2em" x="0" >tenant-funded)</tspan></text></g><g id="v-193"  label-idx="1" cursor="move" transform="matrix(1,0,0,1,2438.98486328125,1085.7852783203125)" style="cursor: default;"><rect joint-selector="rect" id="v-197" fill="#ffffff" rx="3" ry="3" x="-4.547473508864641e-13" y="0" width="0" height="0"  display="none"></rect><text joint-selector="text" id="v-196" fill="#000000" font-size="14" text-anchor="middle" text-vertical-anchor="middle" pointer-events="none"></text></g></g></g><!--z-index:37--><g   id="j_19"  style="opacity: 1;"><path fill="none" cursor="pointer" stroke="transparent" stroke-linecap="round" joint-selector="wrapper" id="v-211" stroke-width="10" stroke-linejoin="round" d="M 2280 1083.23 L 2441 1170 C 2447 1172.9666666666667 2451.333333333333 1177.6333333333334 2454 1184 L 2785.43 2019"></path><path fill="none" pointer-events="none" joint-selector="line" id="v-210" stroke="#444444" stroke-width="2" stroke-linejoin="round" stroke-dasharray="8 8" d="M 2280 1083.23 L 2441 1170 C 2447 1172.9666666666667 2451.333333333333 1177.6333333333334 2454 1184 L 2785.43 2019" marker-end="url(#v-21252848929)"></path><g id="v-203" ><g id="v-204"  label-idx="0" cursor="move" transform="matrix(1,0,0,1,2448.851318359375,1175.834716796875)" style="cursor: default;"><rect joint-selector="rect" id="v-207" fill="#ffffff" rx="3" ry="3" x="-69.21031188964844" y="-46.46847915649414" width="136.74224853515625" height="88.20736694335938" pointer-events="none"  style="display: block;"></rect><text joint-selector="text" id="v-206" font-size="24px" xml:space="preserve" fill="#444444" text-anchor="middle" pointer-events="none" font-family="Tahoma, Verdana, Helvetica, Arial" font-weight="normal"  style="display: block;"><tspan dy="-0.8999999999999999em" >Sends</tspan><tspan dy="1.2em" x="0" >transactional</tspan><tspan dy="1.2em" x="0" >emails</tspan></text></g><g id="v-205"  label-idx="1" cursor="move" transform="matrix(1,0,0,1,2438.851318359375,1216.6346435546875)" style="cursor: default;"><rect joint-selector="rect" id="v-209" fill="#ffffff" rx="3" ry="3" x="0" y="0" width="0" height="0"  display="none"></rect><text joint-selector="text" id="v-208" fill="#000000" font-size="14" text-anchor="middle" text-vertical-anchor="middle" pointer-events="none"></text></g></g></g><!--z-index:38--></g><g  style="user-select: none;"></g><g ></g><g  display="none"></g></g></svg>