<svg xmlns="http://www.w3.org/2000/svg" xmlns:xlink="http://www.w3.org/1999/xlink" version="1.1" style="background: #ffffff" viewBox="0 0 2800 3055"><style id="v-3" type="text/css">        .joint-element .scalable * {            vector-effect: non-scaling-stroke;        }    </style><defs joint-selector="defs"><marker id="v-21252848929" orient="auto" overflow="visible" markerUnits="userSpaceOnUse"><path id="v-138" stroke="#444444" fill="#444444" transform="rotate(180)" d="M 20 -10 0 0 20 10 Z"></path></marker></defs><g joint-selector="layers"  transform="matrix(1,0,0,1,0,0)"><g  style="pointer-events: none;"></g><g ></g><g  style="user-select: none;"><!--z-index:1--><!--z-index:2--><!--z-index:3--><!--z-index:4--><!--z-index:5--><!--z-index:6--><!--z-index:7--><!--z-index:8--><!--z-index:9--><!--z-index:10--><!--z-index:11--><!--z-index:12--><!--z-index:13--><!--z-index:14--><!--z-index:15--><!--z-index:16--><!--z-index:17--><!--z-index:18--><!--z-index:19--><!--z-index:20--><!--z-index:21--><!--z-index:22--><!--z-index:23--><!--z-index:24--><g   id="j_2"  transform="translate(20,3011)"><g id="v-6"><text  id="v-7" font-size="24px" xml:space="preserve" y="0.8em" font-weight="normal" text-anchor="start" fill="#444444" pointer-events="none" display="block" font-family="Tahoma, Verdana, Helvetica, Arial"><tspan dy="0"  display="block">Monday, 22 June 2026 at 22:32 East Africa Time</tspan></text></g></g><!--z-index:25--><g   id="j_1"  transform="translate(20,2965)"><g id="v-4"><text  id="v-5" font-size="36px" xml:space="preserve" y="0.8em" font-weight="normal" text-anchor="start" fill="#444444" pointer-events="none" display="block" font-family="Tahoma, Verdana, Helvetica, Arial"><tspan dy="0"  display="block">System Context View: Visitor Management System</tspan></text></g></g><!--z-index:26--><g   id="j_3"  transform="translate(1211,159)" style=""><g  id="v-11" style="opacity: 1;"><rect  x="0" y="160" width="400" height="240" rx="70" id="v-13" stroke-width="2" pointer-events="visiblePainted" fill="#08427b" stroke="#073b6f" stroke-dasharray="" style="fill: rgb(8, 66, 123); stroke: rgb(7, 59, 111);"></rect><circle  cx="200" cy="88.88888888888889" r="88.88888888888889" id="v-12" stroke-width="2" pointer-events="visiblePainted" fill="#08427b" stroke="#073b6f" stroke-dasharray="" style="fill: rgb(8, 66, 123); stroke: rgb(7, 59, 111);"></circle><line  x1="80" y1="266.6666666666667" x2="80" y2="400" id="v-19" stroke="#073b6f" stroke-width="1" stroke-dasharray="" style="stroke: rgb(7, 59, 111);"></line><line  x1="320" y1="266.6666666666667" x2="320" y2="400" id="v-20" stroke="#073b6f" stroke-width="1" stroke-dasharray="" style="stroke: rgb(7, 59, 111);"></line><text  id="v-14" font-size="33.599999999999994px" xml:space="preserve" y="188.10000000000002" font-weight="bold" text-anchor="middle" pointer-events="visible" font-family="Tahoma, Verdana, Helvetica, Arial" fill="#ffffff" dominant-baseline="hanging" transform="matrix(1,0,0,1,200,0)" style="fill: rgb(255, 255, 255);"><tspan dy="0" >Visitor</tspan></text><text  id="v-15" font-size="16.799999999999997px" xml:space="preserve" y="229.70000000000002" text-anchor="middle" font-family="Tahoma, Verdana, Helvetica, Arial" fill="#ffffff" dominant-baseline="hanging" transform="matrix(1,0,0,1,200,0)" style="display: block; fill: rgb(255, 255, 255);"><tspan dy="0" >[Person]</tspan></text><text  id="v-16" font-size="24px" xml:space="preserve" y="261.5" text-anchor="middle" font-family="Tahoma, Verdana, Helvetica, Arial" fill="#ffffff" dominant-baseline="hanging" transform="matrix(1,0,0,1,200,0)" style="display: block; fill: rgb(255, 255, 255);"><tspan dy="0" >A person arriving at a building.</tspan><tspan dy="1.2em" x="0" >Interacts with the system</tspan><tspan dy="1.2em" x="0" >exclusively via USSD on any</tspan><tspan dy="1.2em" x="0" >phone.</tspan></text><g  id="v-17" font-weight="normal" text-anchor="middle" color="#ffffff" transform="matrix(1,0,0,1,197.5,368)" style="fill: rgb(255, 255, 255);" display="none"><g ></g><g ></g><g ></g><g ></g></g><image  id="v-18"></image></g></g><!--z-index:27--><g   id="j_4"  transform="translate(509,2414)" style=""><g  id="v-27" style="opacity: 1;"><rect  x="0" y="160" width="400" height="240" rx="70" id="v-29" stroke-width="2" pointer-events="visiblePainted" fill="#08427b" stroke="#073b6f" stroke-dasharray="" style="fill: rgb(8, 66, 123); stroke: rgb(7, 59, 111);"></rect><circle  cx="200" cy="88.88888888888889" r="88.88888888888889" id="v-28" stroke-width="2" pointer-events="visiblePainted" fill="#08427b" stroke="#073b6f" stroke-dasharray="" style="fill: rgb(8, 66, 123); stroke: rgb(7, 59, 111);"></circle><line  x1="80" y1="266.6666666666667" x2="80" y2="400" id="v-35" stroke="#073b6f" stroke-width="1" stroke-dasharray="" style="stroke: rgb(7, 59, 111);"></line><line  x1="320" y1="266.6666666666667" x2="320" y2="400" id="v-36" stroke="#073b6f" stroke-width="1" stroke-dasharray="" style="stroke: rgb(7, 59, 111);"></line><text  id="v-30" font-size="33.599999999999994px" xml:space="preserve" y="188.10000000000002" font-weight="bold" text-anchor="middle" pointer-events="visible" font-family="Tahoma, Verdana, Helvetica, Arial" fill="#ffffff" dominant-baseline="hanging" transform="matrix(1,0,0,1,200,0)" style="fill: rgb(255, 255, 255);"><tspan dy="0" >Security Guard</tspan></text><text  id="v-31" font-size="16.799999999999997px" xml:space="preserve" y="229.70000000000002" text-anchor="middle" font-family="Tahoma, Verdana, Helvetica, Arial" fill="#ffffff" dominant-baseline="hanging" transform="matrix(1,0,0,1,200,0)" style="display: block; fill: rgb(255, 255, 255);"><tspan dy="0" >[Person]</tspan></text><text  id="v-32" font-size="24px" xml:space="preserve" y="261.5" text-anchor="middle" font-family="Tahoma, Verdana, Helvetica, Arial" fill="#ffffff" dominant-baseline="hanging" transform="matrix(1,0,0,1,200,0)" style="display: block; fill: rgb(255, 255, 255);"><tspan dy="0" >Stationed at building reception.</tspan><tspan dy="1.2em" x="0" >Receives real-time arrival</tspan><tspan dy="1.2em" x="0" >notifications via the PWA</tspan><tspan dy="1.2em" x="0" >dashboard.</tspan></text><g  id="v-33" font-weight="normal" text-anchor="middle" color="#ffffff" transform="matrix(1,0,0,1,197.5,368)" style="fill: rgb(255, 255, 255);" display="none"><g ></g><g ></g><g ></g><g ></g></g><image  id="v-34"></image></g></g><!--z-index:28--><g   id="j_5"  transform="translate(959,2414)" style=""><g  id="v-40" style="opacity: 1;"><rect  x="0" y="160" width="400" height="240" rx="70" id="v-42" stroke-width="2" pointer-events="visiblePainted" fill="#08427b" stroke="#073b6f" stroke-dasharray="" style="fill: rgb(8, 66, 123); stroke: rgb(7, 59, 111);"></rect><circle  cx="200" cy="88.88888888888889" r="88.88888888888889" id="v-41" stroke-width="2" pointer-events="visiblePainted" fill="#08427b" stroke="#073b6f" stroke-dasharray="" style="fill: rgb(8, 66, 123); stroke: rgb(7, 59, 111);"></circle><line  x1="80" y1="266.6666666666667" x2="80" y2="400" id="v-48" stroke="#073b6f" stroke-width="1" stroke-dasharray="" style="stroke: rgb(7, 59, 111);"></line><line  x1="320" y1="266.6666666666667" x2="320" y2="400" id="v-49" stroke="#073b6f" stroke-width="1" stroke-dasharray="" style="stroke: rgb(7, 59, 111);"></line><text  id="v-43" font-size="33.599999999999994px" xml:space="preserve" y="202.5" font-weight="bold" text-anchor="middle" pointer-events="visible" font-family="Tahoma, Verdana, Helvetica, Arial" fill="#ffffff" dominant-baseline="hanging" transform="matrix(1,0,0,1,200,0)" style="fill: rgb(255, 255, 255);"><tspan dy="0" >Tenant Admin</tspan></text><text  id="v-44" font-size="16.799999999999997px" xml:space="preserve" y="244.1" text-anchor="middle" font-family="Tahoma, Verdana, Helvetica, Arial" fill="#ffffff" dominant-baseline="hanging" transform="matrix(1,0,0,1,200,0)" style="display: block; fill: rgb(255, 255, 255);"><tspan dy="0" >[Person]</tspan></text><text  id="v-45" font-size="24px" xml:space="preserve" y="275.9" text-anchor="middle" font-family="Tahoma, Verdana, Helvetica, Arial" fill="#ffffff" dominant-baseline="hanging" transform="matrix(1,0,0,1,200,0)" style="display: block; fill: rgb(255, 255, 255);"><tspan dy="0" >Manages a single tenant's</tspan><tspan dy="1.2em" x="0" >visitor log, routing codes, and</tspan><tspan dy="1.2em" x="0" >staff access via the dashboard.</tspan></text><g  id="v-46" font-weight="normal" text-anchor="middle" color="#ffffff" transform="matrix(1,0,0,1,197.5,368)" style="fill: rgb(255, 255, 255);" display="none"><g ></g><g ></g><g ></g><g ></g></g><image  id="v-47"></image></g></g><!--z-index:29--><g   id="j_6"  transform="translate(1749,2414)" style=""><g  id="v-56" style="opacity: 1;"><rect  x="0" y="160" width="400" height="240" rx="70" id="v-58" stroke-width="2" pointer-events="visiblePainted" fill="#08427b" stroke="#073b6f" stroke-dasharray="" style="fill: rgb(8, 66, 123); stroke: rgb(7, 59, 111);"></rect><circle  cx="200" cy="88.88888888888889" r="88.88888888888889" id="v-57" stroke-width="2" pointer-events="visiblePainted" fill="#08427b" stroke="#073b6f" stroke-dasharray="" style="fill: rgb(8, 66, 123); stroke: rgb(7, 59, 111);"></circle><line  x1="80" y1="266.6666666666667" x2="80" y2="400" id="v-64" stroke="#073b6f" stroke-width="1" stroke-dasharray="" style="stroke: rgb(7, 59, 111);"></line><line  x1="320" y1="266.6666666666667" x2="320" y2="400" id="v-65" stroke="#073b6f" stroke-width="1" stroke-dasharray="" style="stroke: rgb(7, 59, 111);"></line><text  id="v-59" font-size="33.599999999999994px" xml:space="preserve" y="188.10000000000002" font-weight="bold" text-anchor="middle" pointer-events="visible" font-family="Tahoma, Verdana, Helvetica, Arial" fill="#ffffff" dominant-baseline="hanging" transform="matrix(1,0,0,1,200,0)" style="fill: rgb(255, 255, 255);"><tspan dy="0" >Building Manager</tspan></text><text  id="v-60" font-size="16.799999999999997px" xml:space="preserve" y="229.70000000000002" text-anchor="middle" font-family="Tahoma, Verdana, Helvetica, Arial" fill="#ffffff" dominant-baseline="hanging" transform="matrix(1,0,0,1,200,0)" style="display: block; fill: rgb(255, 255, 255);"><tspan dy="0" >[Person]</tspan></text><text  id="v-61" font-size="24px" xml:space="preserve" y="261.5" text-anchor="middle" font-family="Tahoma, Verdana, Helvetica, Arial" fill="#ffffff" dominant-baseline="hanging" transform="matrix(1,0,0,1,200,0)" style="display: block; fill: rgb(255, 255, 255);"><tspan dy="0" >Oversees an entire building.</tspan><tspan dy="1.2em" x="0" >Views and exports</tspan><tspan dy="1.2em" x="0" >building-wide visitor logs via</tspan><tspan dy="1.2em" x="0" >the dashboard.</tspan></text><g  id="v-62" font-weight="normal" text-anchor="middle" color="#ffffff" transform="matrix(1,0,0,1,197.5,368)" style="fill: rgb(255, 255, 255);" display="none"><g ></g><g ></g><g ></g><g ></g></g><image  id="v-63"></image></g></g><!--z-index:30--><g   id="j_7"  transform="translate(2199,2414)" style=""><g  id="v-69" style="opacity: 1;"><rect  x="0" y="160" width="400" height="240" rx="70" id="v-71" stroke-width="2" pointer-events="visiblePainted" fill="#08427b" stroke="#073b6f" stroke-dasharray="" style="fill: rgb(8, 66, 123); stroke: rgb(7, 59, 111);"></rect><circle  cx="200" cy="88.88888888888889" r="88.88888888888889" id="v-70" stroke-width="2" pointer-events="visiblePainted" fill="#08427b" stroke="#073b6f" stroke-dasharray="" style="fill: rgb(8, 66, 123); stroke: rgb(7, 59, 111);"></circle><line  x1="80" y1="266.6666666666667" x2="80" y2="400" id="v-77" stroke="#073b6f" stroke-width="1" stroke-dasharray="" style="stroke: rgb(7, 59, 111);"></line><line  x1="320" y1="266.6666666666667" x2="320" y2="400" id="v-78" stroke="#073b6f" stroke-width="1" stroke-dasharray="" style="stroke: rgb(7, 59, 111);"></line><text  id="v-72" font-size="33.599999999999994px" xml:space="preserve" y="188.10000000000002" font-weight="bold" text-anchor="middle" pointer-events="visible" font-family="Tahoma, Verdana, Helvetica, Arial" fill="#ffffff" dominant-baseline="hanging" transform="matrix(1,0,0,1,200,0)" style="fill: rgb(255, 255, 255);"><tspan dy="0" >Org Admin</tspan></text><text  id="v-73" font-size="16.799999999999997px" xml:space="preserve" y="229.70000000000002" text-anchor="middle" font-family="Tahoma, Verdana, Helvetica, Arial" fill="#ffffff" dominant-baseline="hanging" transform="matrix(1,0,0,1,200,0)" style="display: block; fill: rgb(255, 255, 255);"><tspan dy="0" >[Person]</tspan></text><text  id="v-74" font-size="24px" xml:space="preserve" y="261.5" text-anchor="middle" font-family="Tahoma, Verdana, Helvetica, Arial" fill="#ffffff" dominant-baseline="hanging" transform="matrix(1,0,0,1,200,0)" style="display: block; fill: rgb(255, 255, 255);"><tspan dy="0" >Manages the organisation —</tspan><tspan dy="1.2em" x="0" >registers buildings, onboards</tspan><tspan dy="1.2em" x="0" >tenants, manages building</tspan><tspan dy="1.2em" x="0" >managers.</tspan></text><g  id="v-75" font-weight="normal" text-anchor="middle" color="#ffffff" transform="matrix(1,0,0,1,197.5,368)" style="fill: rgb(255, 255, 255);" display="none"><g ></g><g ></g><g ></g><g ></g></g><image  id="v-76"></image></g></g><!--z-index:31--><g   id="j_8"  transform="translate(1011,1193)" style=""><g  id="v-85" style="opacity: 1;"><rect  id="v-86" rx="1" ry="1" stroke-width="2" pointer-events="visiblePainted" fill="#1168bd" stroke="#0f5eaa" stroke-dasharray="" width="800" height="500" style="fill: rgb(17, 104, 189); stroke: rgb(15, 94, 170);"></rect><text  id="v-87" font-size="50.4px" xml:space="preserve" y="117.9" font-weight="bold" text-anchor="middle" pointer-events="visible" font-family="Tahoma, Verdana, Helvetica, Arial" fill="#ffffff" dominant-baseline="hanging" transform="matrix(1,0,0,1,400,0)" style="fill: rgb(255, 255, 255);"><tspan dy="0" >Visitor Management System</tspan></text><text  id="v-88" font-size="25.2px" xml:space="preserve" y="176.3" text-anchor="middle" font-family="Tahoma, Verdana, Helvetica, Arial" fill="#ffffff" dominant-baseline="hanging" transform="matrix(1,0,0,1,400,0)" style="display: block; fill: rgb(255, 255, 255);"><tspan dy="0" >[Software System]</tspan></text><text  id="v-89" font-size="36px" xml:space="preserve" y="216.5" text-anchor="middle" font-family="Tahoma, Verdana, Helvetica, Arial" fill="#ffffff" dominant-baseline="hanging" transform="matrix(1,0,0,1,400,0)" style="display: block; fill: rgb(255, 255, 255);"><tspan dy="0" >Digitally replaces the paper sign-in book.</tspan><tspan dy="1.2em" x="0" >Handles USSD check-in, real-time</tspan><tspan dy="1.2em" x="0" >notifications, tenant-scoped and building-wide</tspan><tspan dy="1.2em" x="0" >visitor logs.</tspan></text><g  id="v-90" color="#ffffff" transform="matrix(1,0,0,1,397.5,468)" style="fill: rgb(255, 255, 255);" display="none"><g ></g><g ></g><g ></g><g ></g></g><image  id="v-91"></image></g></g><!--z-index:32--><g   id="j_9"  transform="translate(1384,711)" style=""><g  id="v-95" style="opacity: 1;"><rect  id="v-96" rx="1" ry="1" stroke-width="2" pointer-events="visiblePainted" fill="#ffffff" stroke="#444444" stroke-dasharray="" width="450" height="300" style="fill: rgb(255, 255, 255); stroke: rgb(68, 68, 68);"></rect><text  id="v-97" font-size="33.599999999999994px" xml:space="preserve" y="72.5" font-weight="bold" text-anchor="middle" pointer-events="visible" font-family="Tahoma, Verdana, Helvetica, Arial" fill="#444444" dominant-baseline="hanging" transform="matrix(1,0,0,1,225,0)" style="fill: rgb(68, 68, 68);"><tspan dy="0" >USSD Aggregator</tspan></text><text  id="v-98" font-size="16.799999999999997px" xml:space="preserve" y="114.1" text-anchor="middle" font-family="Tahoma, Verdana, Helvetica, Arial" fill="#444444" dominant-baseline="hanging" transform="matrix(1,0,0,1,225,0)" style="display: block; fill: rgb(68, 68, 68);"><tspan dy="0" >[Software System]</tspan></text><text  id="v-99" font-size="24px" xml:space="preserve" y="145.89999999999998" text-anchor="middle" font-family="Tahoma, Verdana, Helvetica, Arial" fill="#444444" dominant-baseline="hanging" transform="matrix(1,0,0,1,225,0)" style="display: block; fill: rgb(68, 68, 68);"><tspan dy="0" >Africa's Talking. Routes USSD</tspan><tspan dy="1.2em" x="0" >sessions from telco networks to the</tspan><tspan dy="1.2em" x="0" >system via HTTP callbacks.</tspan></text><g  id="v-100" color="#444444" transform="matrix(1,0,0,1,222.5,268)" style="fill: rgb(68, 68, 68);" display="none"><g ></g><g ></g><g ></g><g ></g></g><image  id="v-101"></image></g></g><!--z-index:33--><g   id="j_10"  transform="translate(1384,1932)" style=""><g  id="v-105" style="opacity: 1;"><rect  id="v-106" rx="1" ry="1" stroke-width="2" pointer-events="visiblePainted" fill="#ffffff" stroke="#444444" stroke-dasharray="" width="450" height="300" style="fill: rgb(255, 255, 255); stroke: rgb(68, 68, 68);"></rect><text  id="v-107" font-size="33.599999999999994px" xml:space="preserve" y="72.5" font-weight="bold" text-anchor="middle" pointer-events="visible" font-family="Tahoma, Verdana, Helvetica, Arial" fill="#444444" dominant-baseline="hanging" transform="matrix(1,0,0,1,225,0)" style="fill: rgb(68, 68, 68);"><tspan dy="0" >Email Service</tspan></text><text  id="v-108" font-size="16.799999999999997px" xml:space="preserve" y="114.1" text-anchor="middle" font-family="Tahoma, Verdana, Helvetica, Arial" fill="#444444" dominant-baseline="hanging" transform="matrix(1,0,0,1,225,0)" style="display: block; fill: rgb(68, 68, 68);"><tspan dy="0" >[Software System]</tspan></text><text  id="v-109" font-size="24px" xml:space="preserve" y="145.89999999999998" text-anchor="middle" font-family="Tahoma, Verdana, Helvetica, Arial" fill="#444444" dominant-baseline="hanging" transform="matrix(1,0,0,1,225,0)" style="display: block; fill: rgb(68, 68, 68);"><tspan dy="0" >Transactional email delivery —</tspan><tspan dy="1.2em" x="0" >password resets, onboarding invites,</tspan><tspan dy="1.2em" x="0" >export delivery. Provider TBD.</tspan></text><g  id="v-110" color="#444444" transform="matrix(1,0,0,1,222.5,268)" style="fill: rgb(68, 68, 68);" display="none"><g ></g><g ></g><g ></g><g ></g></g><image  id="v-111"></image></g></g><!--z-index:34--><g   id="j_11"  transform="translate(199,1932)" style=""><g  id="v-118" style="opacity: 1;"><rect  id="v-119" rx="1" ry="1" stroke-width="2" pointer-events="visiblePainted" fill="#ffffff" stroke="#444444" stroke-dasharray="" width="450" height="300" style="fill: rgb(255, 255, 255); stroke: rgb(68, 68, 68);"></rect><text  id="v-120" font-size="33.599999999999994px" xml:space="preserve" y="72.5" font-weight="bold" text-anchor="middle" pointer-events="visible" font-family="Tahoma, Verdana, Helvetica, Arial" fill="#444444" dominant-baseline="hanging" transform="matrix(1,0,0,1,225,0)" style="fill: rgb(68, 68, 68);"><tspan dy="0" >Web Push Service</tspan></text><text  id="v-121" font-size="16.799999999999997px" xml:space="preserve" y="114.1" text-anchor="middle" font-family="Tahoma, Verdana, Helvetica, Arial" fill="#444444" dominant-baseline="hanging" transform="matrix(1,0,0,1,225,0)" style="display: block; fill: rgb(68, 68, 68);"><tspan dy="0" >[Software System]</tspan></text><text  id="v-122" font-size="24px" xml:space="preserve" y="145.89999999999998" text-anchor="middle" font-family="Tahoma, Verdana, Helvetica, Arial" fill="#444444" dominant-baseline="hanging" transform="matrix(1,0,0,1,225,0)" style="display: block; fill: rgb(68, 68, 68);"><tspan dy="0" >Browser push notification delivery to</tspan><tspan dy="1.2em" x="0" >the guard's PWA when the browser</tspan><tspan dy="1.2em" x="0" >tab is closed. Uses VAPID.</tspan></text><g  id="v-123" color="#444444" transform="matrix(1,0,0,1,222.5,268)" style="fill: rgb(68, 68, 68);" display="none"><g ></g><g ></g><g ></g><g ></g></g><image  id="v-124"></image></g></g><!--z-index:35--><g   id="j_12"  style="opacity: 1;"><path fill="none" cursor="pointer" stroke="transparent" stroke-linecap="round" joint-selector="wrapper" id="v-136" stroke-width="10" stroke-linejoin="round" d="M 1268.45 559 L 1220 627 C 1216 632.5999999999999 1214 638.5999999999999 1214 645 L 1214 1093 C 1214 1099.3999999999999 1215.6666666666665 1105.3999999999999 1219 1111 L 1266.32 1193" style="stroke-width: 10px;"></path><path fill="none" pointer-events="none" joint-selector="line" id="v-135" stroke="#444444" stroke-width="2" stroke-linejoin="round" stroke-dasharray="8 8" d="M 1268.45 559 L 1220 627 C 1216 632.5999999999999 1214 638.5999999999999 1214 645 L 1214 1093 C 1214 1099.3999999999999 1215.6666666666665 1105.3999999999999 1219 1111 L 1266.32 1193" marker-end="url(#v-21252848929)"></path><g id="v-128" ><g id="v-129"  label-idx="0" cursor="move" transform="matrix(1,0,0,1,1214,861.710205078125)" style="cursor: default;"><rect joint-selector="rect" id="v-132" fill="#ffffff" rx="3" ry="3" x="-93.24187469482422" y="-32.068485260009766" width="187.4202117919922" height="59.40736770629883" pointer-events="none"  style="display: block;"></rect><text joint-selector="text" id="v-131" font-size="24px" xml:space="preserve" fill="#444444" text-anchor="middle" pointer-events="none" font-family="Tahoma, Verdana, Helvetica, Arial" font-weight="normal"  style="display: block;"><tspan dy="-0.3em" >Checks into the</tspan><tspan dy="1.2em" x="0" >building via USSD</tspan></text></g><g id="v-130"  label-idx="1" cursor="move" transform="matrix(1,0,0,1,1204,888.1102294921875)" style="cursor: default;"><rect joint-selector="rect" id="v-134" fill="#ffffff" rx="3" ry="3" x="-1.1368683772161603e-13" y="0" width="0" height="0"  display="none"></rect><text joint-selector="text" id="v-133" fill="#000000" font-size="14" text-anchor="middle" text-vertical-anchor="middle" pointer-events="none"></text></g></g></g><!--z-index:36--><g   id="j_13"  style="opacity: 1;"><path fill="none" cursor="pointer" stroke="transparent" stroke-linecap="round" joint-selector="wrapper" id="v-150" stroke-width="10" stroke-linejoin="round" d="M 1554.27 559 L 1603 627 C 1606.9999999999998 632.5999999999999 1608.9999999999998 638.5999999999999 1609 645 L 1609 711"></path><path fill="none" pointer-events="none" joint-selector="line" id="v-149" stroke="#444444" stroke-width="2" stroke-linejoin="round" stroke-dasharray="8 8" d="M 1554.27 559 L 1603 627 C 1606.9999999999998 632.5999999999999 1608.9999999999998 638.5999999999999 1609 645 L 1609 711" marker-end="url(#v-21252848929)"></path><g id="v-142" ><g id="v-143"  label-idx="0" cursor="move" transform="matrix(1,0,0,1,1607.3927001953125,635.3839721679688)" style="cursor: default;"><rect joint-selector="rect" id="v-146" fill="#ffffff" rx="3" ry="3" x="-66.28108978271484" y="-32.068485260009766" width="133.30972290039062" height="59.40736770629883" pointer-events="none"  style="display: block;"></rect><text joint-selector="text" id="v-145" font-size="24px" xml:space="preserve" fill="#444444" text-anchor="middle" pointer-events="none" font-family="Tahoma, Verdana, Helvetica, Arial" font-weight="normal"  style="display: block;"><tspan dy="-0.3em" >Dials tenant</tspan><tspan dy="1.2em" x="0" >routing code</tspan></text></g><g id="v-144"  label-idx="1" cursor="move" transform="matrix(1,0,0,1,1597.3927001953125,661.783935546875)" style="cursor: default;"><rect joint-selector="rect" id="v-148" fill="#ffffff" rx="3" ry="3" x="0" y="1.1368683772161603e-13" width="0" height="0"  display="none"></rect><text joint-selector="text" id="v-147" fill="#000000" font-size="14" text-anchor="middle" text-vertical-anchor="middle" pointer-events="none"></text></g></g></g><!--z-index:37--><g   id="j_14"  style="opacity: 1;"><path fill="none" cursor="pointer" stroke="transparent" stroke-linecap="round" joint-selector="wrapper" id="v-162" stroke-width="10" stroke-linejoin="round" d="M 1609 1011 L 1609 1093 C 1608.9999999999998 1099.3999999999999 1607.333333333333 1105.3999999999999 1604 1111 L 1556.42 1193" style="stroke-width: 10px;"></path><path fill="none" pointer-events="none" joint-selector="line" id="v-161" stroke="#444444" stroke-width="2" stroke-linejoin="round" stroke-dasharray="8 8" d="M 1609 1011 L 1609 1093 C 1608.9999999999998 1099.3999999999999 1607.333333333333 1105.3999999999999 1604 1111 L 1556.42 1193" marker-end="url(#v-21252848929)"></path><g id="v-154" ><g id="v-155"  label-idx="0" cursor="move" transform="matrix(1,0,0,1,1607.9105224609375,1101.7010498046875)" style="cursor: default;"><rect joint-selector="rect" id="v-158" fill="#ffffff" rx="3" ry="3" x="-88.96760559082031" y="-46.46847915649414" width="179.99029541015625" height="88.20736694335938" pointer-events="none"  style="display: block;"></rect><text joint-selector="text" id="v-157" font-size="24px" xml:space="preserve" fill="#444444" text-anchor="middle" pointer-events="none" font-family="Tahoma, Verdana, Helvetica, Arial" font-weight="normal"  style="display: block;"><tspan dy="-0.8999999999999999em" >Forwards USSD</tspan><tspan dy="1.2em" x="0" >session via HTTP</tspan><tspan dy="1.2em" x="0" >callback</tspan></text></g><g id="v-156"  label-idx="1" cursor="move" transform="matrix(1,0,0,1,1597.9105224609375,1142.5009765625)" style="cursor: default;"><rect joint-selector="rect" id="v-160" fill="#ffffff" rx="3" ry="3" x="0" y="0" width="0" height="0"  display="none"></rect><text joint-selector="text" id="v-159" fill="#000000" font-size="14" text-anchor="middle" text-vertical-anchor="middle" pointer-events="none"></text></g></g></g><!--z-index:38--><g   id="j_15"  style="opacity: 1;"><path fill="none" cursor="pointer" stroke="transparent" stroke-linecap="round" joint-selector="wrapper" id="v-174" stroke-width="10" stroke-linejoin="round" d="M 784.71 2414 L 815 2333 C 817.6666666666666 2326.6 819 2319.9333333333334 819 2313 L 819 1823 C 819 1816.333333333333 821.6666666666666 1811.333333333333 827 1808 L 1011 1693" style="stroke-width: 10px;"></path><path fill="none" pointer-events="none" joint-selector="line" id="v-173" stroke="#444444" stroke-width="2" stroke-linejoin="round" stroke-dasharray="8 8" d="M 784.71 2414 L 815 2333 C 817.6666666666666 2326.6 819 2319.9333333333334 819 2313 L 819 1823 C 819 1816.333333333333 821.6666666666666 1811.333333333333 827 1808 L 1011 1693" marker-end="url(#v-21252848929)"></path><g id="v-166" ><g id="v-167"  label-idx="0" cursor="move" transform="matrix(1,0,0,1,819,2083.157958984375)" style="cursor: default;"><rect joint-selector="rect" id="v-170" fill="#ffffff" rx="3" ry="3" x="-95.49857330322266" y="-60.86848449707031" width="193.80384826660156" height="117.00736999511719" pointer-events="none"  style="display: block;"></rect><text joint-selector="text" id="v-169" font-size="24px" xml:space="preserve" fill="#444444" text-anchor="middle" pointer-events="none" font-family="Tahoma, Verdana, Helvetica, Arial" font-weight="normal"  style="display: block;"><tspan dy="-1.4999999999999998em" >Views visitor log</tspan><tspan dy="1.2em" x="0" >and manages</tspan><tspan dy="1.2em" x="0" >check-ins via PWA</tspan><tspan dy="1.2em" x="0" >dashboard</tspan></text></g><g id="v-168"  label-idx="1" cursor="move" transform="matrix(1,0,0,1,809,2138.358154296875)" style="cursor: default;"><rect joint-selector="rect" id="v-172" fill="#ffffff" rx="3" ry="3" x="0" y="4.547473508864641e-13" width="0" height="0"  display="none"></rect><text joint-selector="text" id="v-171" fill="#000000" font-size="14" text-anchor="middle" text-vertical-anchor="middle" pointer-events="none"></text></g></g></g><!--z-index:39--><g   id="j_16"  style="opacity: 1;"><path fill="none" cursor="pointer" stroke="transparent" stroke-linecap="round" joint-selector="wrapper" id="v-186" stroke-width="10" stroke-linejoin="round" d="M 1011 1592.95 L 433 1809 C 426.99999999999994 1811.6666666666665 423.99999999999994 1816.333333333333 424 1823 L 424 1932" style="stroke-width: 10px;"></path><path fill="none" pointer-events="none" joint-selector="line" id="v-185" stroke="#444444" stroke-width="2" stroke-linejoin="round" stroke-dasharray="8 8" d="M 1011 1592.95 L 433 1809 C 426.99999999999994 1811.6666666666665 423.99999999999994 1816.333333333333 424 1823 L 424 1932" marker-end="url(#v-21252848929)"></path><g id="v-178" ><g id="v-179"  label-idx="0" cursor="move" transform="matrix(1,0,0,1,426.9473876953125,1813.5196533203125)" style="cursor: default;"><rect joint-selector="rect" id="v-182" fill="#ffffff" rx="3" ry="3" x="-87.18914794921875" y="-46.46847915649414" width="174.731689453125" height="88.20736694335938" pointer-events="none"  style="display: block;"></rect><text joint-selector="text" id="v-181" font-size="24px" xml:space="preserve" fill="#444444" text-anchor="middle" pointer-events="none" font-family="Tahoma, Verdana, Helvetica, Arial" font-weight="normal"  style="display: block;"><tspan dy="-0.8999999999999999em" >Sends push</tspan><tspan dy="1.2em" x="0" >notification</tspan><tspan dy="1.2em" x="0" >payload (VAPID)</tspan></text></g><g id="v-180"  label-idx="1" cursor="move" transform="matrix(1,0,0,1,416.9473876953125,1854.319580078125)" style="cursor: default;"><rect joint-selector="rect" id="v-184" fill="#ffffff" rx="3" ry="3" x="0" y="0" width="0" height="0"  display="none"></rect><text joint-selector="text" id="v-183" fill="#000000" font-size="14" text-anchor="middle" text-vertical-anchor="middle" pointer-events="none"></text></g></g></g><!--z-index:40--><g   id="j_17"  style="opacity: 1;"><path fill="none" cursor="pointer" stroke="transparent" stroke-linecap="round" joint-selector="wrapper" id="v-198" stroke-width="10" stroke-linejoin="round" d="M 424 2232 L 424 2313 C 423.99999999999994 2319.9333333333334 426.33333333333326 2325.9333333333334 431 2331 L 512.85 2414"></path><path fill="none" pointer-events="none" joint-selector="line" id="v-197" stroke="#444444" stroke-width="2" stroke-linejoin="round" stroke-dasharray="8 8" d="M 424 2232 L 424 2313 C 423.99999999999994 2319.9333333333334 426.33333333333326 2325.9333333333334 431 2331 L 512.85 2414" marker-end="url(#v-21252848929)"></path><g id="v-190" ><g id="v-191"  label-idx="0" cursor="move" transform="matrix(1,0,0,1,425.6291198730469,2322.3828125)" style="cursor: default;"><rect joint-selector="rect" id="v-194" fill="#ffffff" rx="3" ry="3" x="-78.02786254882812" y="-46.46847915649414" width="156.2994842529297" height="88.20736694335938" pointer-events="none"  style="display: block;"></rect><text joint-selector="text" id="v-193" font-size="24px" xml:space="preserve" fill="#444444" text-anchor="middle" pointer-events="none" font-family="Tahoma, Verdana, Helvetica, Arial" font-weight="normal"  style="display: block;"><tspan dy="-0.8999999999999999em" >Delivers arrival</tspan><tspan dy="1.2em" x="0" >notification to</tspan><tspan dy="1.2em" x="0" >PWA</tspan></text></g><g id="v-192"  label-idx="1" cursor="move" transform="matrix(1,0,0,1,415.6291198730469,2363.1826171875)" style="cursor: default;"><rect joint-selector="rect" id="v-196" fill="#ffffff" rx="3" ry="3" x="0" y="0" width="0" height="0"  display="none"></rect><text joint-selector="text" id="v-195" fill="#000000" font-size="14" text-anchor="middle" text-vertical-anchor="middle" pointer-events="none"></text></g></g></g><!--z-index:41--><g   id="j_18"  style="opacity: 1;"><path fill="none" cursor="pointer" stroke="transparent" stroke-linecap="round" joint-selector="wrapper" id="v-210" stroke-width="10" stroke-linejoin="round" d="M 1196.85 2414 L 1212 2333 C 1213.3333333333333 2326.6 1214 2319.9333333333334 1214 2313 L 1214 1823 C 1214 1816.333333333333 1215.6666666666665 1809.9999999999998 1219 1804 L 1277.89 1693" style="stroke-width: 10px;"></path><path fill="none" pointer-events="none" joint-selector="line" id="v-209" stroke="#444444" stroke-width="2" stroke-linejoin="round" stroke-dasharray="8 8" d="M 1196.85 2414 L 1212 2333 C 1213.3333333333333 2326.6 1214 2319.9333333333334 1214 2313 L 1214 1823 C 1214 1816.333333333333 1215.6666666666665 1809.9999999999998 1219 1804 L 1277.89 1693" marker-end="url(#v-21252848929)"></path><g id="v-202" ><g id="v-203"  label-idx="0" cursor="move" transform="matrix(1,0,0,1,1214,2082.49072265625)" style="cursor: default;"><rect joint-selector="rect" id="v-206" fill="#ffffff" rx="3" ry="3" x="-94.12362670898438" y="-75.26847839355469" width="188.99021911621094" height="145.807373046875" pointer-events="none"  style="display: block;"></rect><text joint-selector="text" id="v-205" font-size="24px" xml:space="preserve" fill="#444444" text-anchor="middle" pointer-events="none" font-family="Tahoma, Verdana, Helvetica, Arial" font-weight="normal"  style="display: block;"><tspan dy="-2.1em" >Views tenant</tspan><tspan dy="1.2em" x="0" >visitor log,</tspan><tspan dy="1.2em" x="0" >exports, manages</tspan><tspan dy="1.2em" x="0" >routing codes via</tspan><tspan dy="1.2em" x="0" >dashboard</tspan></text></g><g id="v-204"  label-idx="1" cursor="move" transform="matrix(1,0,0,1,1204,2152.0908203125)" style="cursor: default;"><rect joint-selector="rect" id="v-208" fill="#ffffff" rx="3" ry="3" x="-1.1368683772161603e-13" y="0" width="0" height="0"  display="none"></rect><text joint-selector="text" id="v-207" fill="#000000" font-size="14" text-anchor="middle" text-vertical-anchor="middle" pointer-events="none"></text></g></g></g><!--z-index:42--><g   id="j_19"  style="opacity: 1;"><path fill="none" cursor="pointer" stroke="transparent" stroke-linecap="round" joint-selector="wrapper" id="v-222" stroke-width="10" stroke-linejoin="round" d="M 1986.85 2414 L 2002 2333 C 2003.3333333333333 2326.6 2004 2319.9333333333334 2004 2313 L 2004 1823 C 2004 1816.333333333333 2001.3333333333333 1811.333333333333 1996 1808 L 1811 1692.58" style="stroke-width: 10px;"></path><path fill="none" pointer-events="none" joint-selector="line" id="v-221" stroke="#444444" stroke-width="2" stroke-linejoin="round" stroke-dasharray="8 8" d="M 1986.85 2414 L 2002 2333 C 2003.3333333333333 2326.6 2004 2319.9333333333334 2004 2313 L 2004 1823 C 2004 1816.333333333333 2001.3333333333333 1811.333333333333 1996 1808 L 1811 1692.58" marker-end="url(#v-21252848929)"></path><g id="v-214" ><g id="v-215"  label-idx="0" cursor="move" transform="matrix(1,0,0,1,2004,2082.8388671875)" style="cursor: default;"><rect joint-selector="rect" id="v-218" fill="#ffffff" rx="3" ry="3" x="-76.5931396484375" y="-75.26847839355469" width="151.3868408203125" height="145.807373046875" pointer-events="none"  style="display: block;"></rect><text joint-selector="text" id="v-217" font-size="24px" xml:space="preserve" fill="#444444" text-anchor="middle" pointer-events="none" font-family="Tahoma, Verdana, Helvetica, Arial" font-weight="normal"  style="display: block;"><tspan dy="-2.1em" >Views</tspan><tspan dy="1.2em" x="0" >building-wide</tspan><tspan dy="1.2em" x="0" >visitor log and</tspan><tspan dy="1.2em" x="0" >exports via</tspan><tspan dy="1.2em" x="0" >dashboard</tspan></text></g><g id="v-216"  label-idx="1" cursor="move" transform="matrix(1,0,0,1,1994,2152.43896484375)" style="cursor: default;"><rect joint-selector="rect" id="v-220" fill="#ffffff" rx="3" ry="3" x="0" y="0" width="0" height="0"  display="none"></rect><text joint-selector="text" id="v-219" fill="#000000" font-size="14" text-anchor="middle" text-vertical-anchor="middle" pointer-events="none"></text></g></g></g><!--z-index:43--><g   id="j_20"  style="opacity: 1;"><path fill="none" cursor="pointer" stroke="transparent" stroke-linecap="round" joint-selector="wrapper" id="v-234" stroke-width="10" stroke-linejoin="round" d="M 2399 2414 L 2399 1823 C 2399 1816.333333333333 2396 1811.6666666666665 2390 1809 L 1811 1592.8" style="stroke-width: 10px;"></path><path fill="none" pointer-events="none" joint-selector="line" id="v-233" stroke="#444444" stroke-width="2" stroke-linejoin="round" stroke-dasharray="8 8" d="M 2399 2414 L 2399 1823 C 2399 1816.333333333333 2396 1811.6666666666665 2390 1809 L 1811 1592.8" marker-end="url(#v-21252848929)"></path><g id="v-226" ><g id="v-227"  label-idx="0" cursor="move" transform="matrix(1,0,0,1,2399,2082.86083984375)" style="cursor: default;"><rect joint-selector="rect" id="v-230" fill="#ffffff" rx="3" ry="3" x="-97.23219299316406" y="-75.26847839355469" width="194.83932495117188" height="145.807373046875" pointer-events="none"  style="display: block;"></rect><text joint-selector="text" id="v-229" font-size="24px" xml:space="preserve" fill="#444444" text-anchor="middle" pointer-events="none" font-family="Tahoma, Verdana, Helvetica, Arial" font-weight="normal"  style="display: block;"><tspan dy="-2.1em" >Manages</tspan><tspan dy="1.2em" x="0" >organisation,</tspan><tspan dy="1.2em" x="0" >buildings, tenants,</tspan><tspan dy="1.2em" x="0" >and users via</tspan><tspan dy="1.2em" x="0" >dashboard</tspan></text></g><g id="v-228"  label-idx="1" cursor="move" transform="matrix(1,0,0,1,2389,2152.4609375)" style="cursor: default;"><rect joint-selector="rect" id="v-232" fill="#ffffff" rx="3" ry="3" x="0" y="-2.2737367544323206e-13" width="0" height="0"  display="none"></rect><text joint-selector="text" id="v-231" fill="#000000" font-size="14" text-anchor="middle" text-vertical-anchor="middle" pointer-events="none"></text></g></g></g><!--z-index:44--><g   id="j_21"  style="opacity: 1;"><path fill="none" cursor="pointer" stroke="transparent" stroke-linecap="round" joint-selector="wrapper" id="v-246" stroke-width="10" stroke-linejoin="round" d="M 1544.78 1693 L 1604 1804 C 1607.333333333333 1809.9999999999998 1608.9999999999998 1816.333333333333 1609 1823 L 1609 1932" style="stroke-width: 10px;"></path><path fill="none" pointer-events="none" joint-selector="line" id="v-245" stroke="#444444" stroke-width="2" stroke-linejoin="round" stroke-dasharray="8 8" d="M 1544.78 1693 L 1604 1804 C 1607.333333333333 1809.9999999999998 1608.9999999999998 1816.333333333333 1609 1823 L 1609 1932" marker-end="url(#v-21252848929)"></path><g id="v-238" ><g id="v-239"  label-idx="0" cursor="move" transform="matrix(1,0,0,1,1607.619873046875,1812.7681884765625)" style="cursor: default;"><rect joint-selector="rect" id="v-242" fill="#ffffff" rx="3" ry="3" x="-89.31134033203125" y="-75.26847839355469" width="178.99154663085938" height="145.807373046875" pointer-events="none"  style="display: block;"></rect><text joint-selector="text" id="v-241" font-size="24px" xml:space="preserve" fill="#444444" text-anchor="middle" pointer-events="none" font-family="Tahoma, Verdana, Helvetica, Arial" font-weight="normal"  style="display: block;"><tspan dy="-2.1em" >Sends</tspan><tspan dy="1.2em" x="0" >transactional</tspan><tspan dy="1.2em" x="0" >emails — invites,</tspan><tspan dy="1.2em" x="0" >password resets,</tspan><tspan dy="1.2em" x="0" >export delivery</tspan></text></g><g id="v-240"  label-idx="1" cursor="move" transform="matrix(1,0,0,1,1597.619873046875,1882.3681640625)" style="cursor: default;"><rect joint-selector="rect" id="v-244" fill="#ffffff" rx="3" ry="3" x="0" y="0" width="0" height="0"  display="none"></rect><text joint-selector="text" id="v-243" fill="#000000" font-size="14" text-anchor="middle" text-vertical-anchor="middle" pointer-events="none"></text></g></g></g><!--z-index:45--><g   id="j_22"  style="opacity: 1;"><path fill="none" cursor="pointer" stroke="transparent" stroke-linecap="round" joint-selector="wrapper" id="v-258" stroke-width="10" stroke-linejoin="round" d="M 1384 2169.6 L 998 2320 C 991.9999999999999 2322.2666666666664 990.6666666666665 2326.2666666666664 994 2332 L 1042 2414"></path><path fill="none" pointer-events="none" joint-selector="line" id="v-257" stroke="#444444" stroke-width="2" stroke-linejoin="round" stroke-dasharray="8 8" d="M 1384 2169.6 L 998 2320 C 991.9999999999999 2322.2666666666664 990.6666666666665 2326.2666666666664 994 2332 L 1042 2414" marker-end="url(#v-21252848929)"></path><g id="v-250" ><g id="v-251"  label-idx="0" cursor="move" transform="matrix(1,0,0,1,993.21875,2323.28125)" style="cursor: default;"><rect joint-selector="rect" id="v-254" fill="#ffffff" rx="3" ry="3" x="-79.08895874023438" y="-17.668485641479492" width="158.9461212158203" height="30.60736656188965" pointer-events="none"  style="display: block;"></rect><text joint-selector="text" id="v-253" font-size="24px" xml:space="preserve" fill="#444444" text-anchor="middle" pointer-events="none" font-family="Tahoma, Verdana, Helvetica, Arial" font-weight="normal"  style="display: block;"><tspan dy="0.3em" >Delivers emails</tspan></text></g><g id="v-252"  label-idx="1" cursor="move" transform="matrix(1,0,0,1,983.21875,2335.28125)" style="cursor: default;"><rect joint-selector="rect" id="v-256" fill="#ffffff" rx="3" ry="3" x="1.1368683772161603e-13" y="-4.547473508864641e-13" width="0" height="0"  display="none"></rect><text joint-selector="text" id="v-255" fill="#000000" font-size="14" text-anchor="middle" text-vertical-anchor="middle" pointer-events="none"></text></g></g></g><!--z-index:46--><g   id="j_23"  style="opacity: 1;"><path fill="none" cursor="pointer" stroke="transparent" stroke-linecap="round" joint-selector="wrapper" id="v-270" stroke-width="10" stroke-linejoin="round" d="M 1609 2232 L 1609 2313 C 1608.9999999999998 2319.9333333333334 1611.6666666666665 2325.6 1617 2330 L 1749 2443.06"></path><path fill="none" pointer-events="none" joint-selector="line" id="v-269" stroke="#444444" stroke-width="2" stroke-linejoin="round" stroke-dasharray="8 8" d="M 1609 2232 L 1609 2313 C 1608.9999999999998 2319.9333333333334 1611.6666666666665 2325.6 1617 2330 L 1749 2443.06" marker-end="url(#v-21252848929)"></path><g id="v-262" ><g id="v-263"  label-idx="0" cursor="move" transform="matrix(1,0,0,1,1610.922607421875,2322.28369140625)" style="cursor: default;"><rect joint-selector="rect" id="v-266" fill="#ffffff" rx="3" ry="3" x="-79.08895874023438" y="-17.668485641479492" width="158.9461212158203" height="30.60736656188965" pointer-events="none"  style="display: block;"></rect><text joint-selector="text" id="v-265" font-size="24px" xml:space="preserve" fill="#444444" text-anchor="middle" pointer-events="none" font-family="Tahoma, Verdana, Helvetica, Arial" font-weight="normal"  style="display: block;"><tspan dy="0.3em" >Delivers emails</tspan></text></g><g id="v-264"  label-idx="1" cursor="move" transform="matrix(1,0,0,1,1600.922607421875,2334.28369140625)" style="cursor: default;"><rect joint-selector="rect" id="v-268" fill="#ffffff" rx="3" ry="3" x="0" y="4.547473508864641e-13" width="0" height="0"  display="none"></rect><text joint-selector="text" id="v-267" fill="#000000" font-size="14" text-anchor="middle" text-vertical-anchor="middle" pointer-events="none"></text></g></g></g><!--z-index:47--><g   id="j_24"  style="opacity: 1;"><path fill="none" cursor="pointer" stroke="transparent" stroke-linecap="round" joint-selector="wrapper" id="v-282" stroke-width="10" stroke-linejoin="round" d="M 1834 2178.13 L 2165 2319 C 2171 2321.9333333333334 2176 2325.9333333333334 2180 2331 L 2244.15 2414"></path><path fill="none" pointer-events="none" joint-selector="line" id="v-281" stroke="#444444" stroke-width="2" stroke-linejoin="round" stroke-dasharray="8 8" d="M 1834 2178.13 L 2165 2319 C 2171 2321.9333333333334 2176 2325.9333333333334 2180 2331 L 2244.15 2414" marker-end="url(#v-21252848929)"></path><g id="v-274" ><g id="v-275"  label-idx="0" cursor="move" transform="matrix(1,0,0,1,2173.07373046875,2324.059814453125)" style="cursor: default;"><rect joint-selector="rect" id="v-278" fill="#ffffff" rx="3" ry="3" x="-79.08895874023438" y="-17.668485641479492" width="158.9461212158203" height="30.60736656188965" pointer-events="none"  style="display: block;"></rect><text joint-selector="text" id="v-277" font-size="24px" xml:space="preserve" fill="#444444" text-anchor="middle" pointer-events="none" font-family="Tahoma, Verdana, Helvetica, Arial" font-weight="normal"  style="display: block;"><tspan dy="0.3em" >Delivers emails</tspan></text></g><g id="v-276"  label-idx="1" cursor="move" transform="matrix(1,0,0,1,2163.07373046875,2336.059814453125)" style="cursor: default;"><rect joint-selector="rect" id="v-280" fill="#ffffff" rx="3" ry="3" x="0" y="0" width="0" height="0"  display="none"></rect><text joint-selector="text" id="v-279" fill="#000000" font-size="14" text-anchor="middle" text-vertical-anchor="middle" pointer-events="none"></text></g></g></g><!--z-index:48--></g><g  style="user-select: none;"></g><g ></g><g  display="none"></g></g></svg>